<svg id="Layer_1" data-name="Layer 1" xmlns="http://www.w3.org/2000/svg" viewBox="0 0 491.37 118.05"><title>dark-8</title><path d="M147.45,175.17h35.27V164.55H160v-40H147.45Z" transform="translate(-4.23 -91.07)"/><path d="M203.62,168.09c-5,0-7.65-4.39-7.65-11s2.62-11.05,7.65-11.05,7.72,4.47,7.72,11.05S208.65,168.09,203.62,168.09Zm.07,8.22c11.69,0,19.34-8.29,19.34-19.2s-7.65-19.19-19.34-19.19-19.4,8.29-19.4,19.19S192.08,176.31,203.69,176.31Z" transform="translate(-4.23 -91.07)"/><path d="M243.26,187.71c5.38,0,10.13-1.2,13.31-4,2.91-2.62,4.82-6.58,4.82-12V138.91h-11v3.9h-.14c-2.13-3.05-5.38-5-10.2-5-9,0-15.23,7.51-15.23,18.13,0,11.12,7.58,17.21,15.72,17.21a11.54,11.54,0,0,0,9.28-4.18h.29v3.61c0,4.4-2.06,6.95-6.94,6.95-3.83,0-5.74-1.63-6.38-3.55H225.55C226.68,183.6,233.27,187.71,243.26,187.71Zm-.07-23.09c-4.32,0-7.16-3.54-7.16-9s2.84-9.07,7.16-9.07c4.81,0,7.36,4.11,7.36,9C250.55,160.65,248.21,164.62,243.19,164.62Z" transform="translate(-4.23 -91.07)"/><path d="M284.11,168.09c-5,0-7.65-4.39-7.65-11s2.62-11.05,7.65-11.05,7.72,4.47,7.72,11.05S289.14,168.09,284.11,168.09Zm.07,8.22c11.69,0,19.34-8.29,19.34-19.2s-7.65-19.19-19.34-19.19-19.41,8.29-19.41,19.19S272.56,176.31,284.18,176.31Z" transform="translate(-4.23 -91.07)"/><path d="M306.89,175.17h11.54V138.91H306.89Zm0-41.29h11.54v-9.35H306.89Z" transform="translate(-4.23 -91.07)"/><path d="M323.44,187.14H335V171.42h.15a12,12,0,0,0,10.27,4.89c9.49,0,15.79-7.51,15.79-19.27,0-10.91-5.88-19.19-15.51-19.19a13.18,13.18,0,0,0-11,5.45h-.21v-4.39H323.44Zm19-19.76c-5,0-7.79-4-7.79-9.91s2.55-10.34,7.58-10.34,7.29,4.1,7.29,10.34S346.81,167.38,342.42,167.38Z" transform="translate(-4.23 -91.07)"/><path d="M380,176.31c9.49,0,16.5-4.11,16.5-12,0-9.28-7.51-10.91-13.88-12-4.6-.85-8.71-1.21-8.71-3.76,0-2.26,2.19-3.33,5-3.33,3.18,0,5.38,1,5.8,4.25h10.63c-.57-7.15-6.09-11.61-16.36-11.61-8.57,0-15.66,4-15.66,11.61,0,8.5,6.73,10.2,13,11.27,4.81.85,9.2,1.2,9.2,4.46,0,2.33-2.19,3.61-5.66,3.61-3.83,0-6.23-1.77-6.66-5.38H362.35C362.71,171.42,369.37,176.31,380,176.31Z" transform="translate(-4.23 -91.07)"/><path d="M412.17,176.24A12.4,12.4,0,0,0,423,170.71h.21v4.46h11V138.91H422.73v20.26c0,4.32-2.41,7.29-6.38,7.29-3.68,0-5.45-2.19-5.45-6.16V138.91H399.42v23.8C399.42,170.78,403.81,176.24,412.17,176.24Z" transform="translate(-4.23 -91.07)"/><path d="M439.29,175.17h11.55V154.85c0-4.32,2.12-7.37,5.74-7.37s5.09,2.27,5.09,6.16v21.53h11.55V154.85c0-4.32,2-7.37,5.74-7.37,3.47,0,5.1,2.27,5.1,6.16v21.53H495.6V151.59c0-8.15-4.11-13.74-12.32-13.74a12.91,12.91,0,0,0-11.41,6.37h-.14a10.86,10.86,0,0,0-10.2-6.37,12.11,12.11,0,0,0-11,6.23h-.21v-5.17h-11Z" transform="translate(-4.23 -91.07)"/><path d="M29.47,101.68a59.54,59.54,0,0,0-11.35,10.38c13.54-1.26,30.75.79,50.73,10.78,21.33,10.67,38.51,11,50.46,8.72a59,59,0,0,0-4.06-9.44c-13.69,1.44-31.23-.47-51.68-10.69C50.58,104.94,39.14,102.26,29.47,101.68Zm77.78,9.06A59.18,59.18,0,0,0,48.39,93a111.77,111.77,0,0,1,20.46,7.92C83.82,108.36,96.74,110.77,107.25,110.74Zm14.62,32.35c-14.44,2.85-34.39,2.27-58.3-9.69-22.36-11.18-40.15-11-52.15-8.37-.62.14-1.23.28-1.82.43A58.76,58.76,0,0,0,5.88,136.2c1-.25,2-.5,3-.73,14.56-3.23,35.13-3.09,60,9.34C91.2,156,109,155.85,121,153.18l1.21-.28c.05-.93.07-1.87.07-2.81A60,60,0,0,0,121.87,143.09Zm-1.58,22.26c-14.31,2.5-33.67,1.54-56.72-10-22.36-11.18-40.15-11-52.15-8.37a58.88,58.88,0,0,0-7.18,2.07c0,.34,0,.68,0,1a59,59,0,0,0,116.06,15.26Z" transform="translate(-4.23 -91.07)" style="fill-rule:evenodd"/></svg>