<svg width="163" height="60" viewBox="0 0 163 60" fill="none" xmlns="http://www.w3.org/2000/svg">
<path d="M62.52 35.24L64.6 24.48L66.68 35.24H62.52ZM68.4 44H74.16L68.24 18.56H60.96L55.2 44H60.84L61.72 39.4H67.52L68.4 44ZM84.3359 38.96C83.5359 38.96 83.2559 38.68 83.2559 37.96V29.4C83.2559 28.68 83.5359 28.4 84.3359 28.4H85.2559C86.0559 28.4 86.4559 28.76 86.4559 29.68V37.68C86.4559 38.6 86.0559 38.96 85.2559 38.96H84.3359ZM86.5359 24.2V26.44C86.1759 25 85.0959 24.2 83.2959 24.2H82.3359C79.0159 24.2 77.6559 25.88 77.6559 28.64V38.72C77.6559 41.48 79.0159 43.16 82.3359 43.16H83.2959C84.9759 43.16 86.0559 42.48 86.4559 41.2V44.24C86.4559 45 86.1359 45.24 85.3759 45.24H78.4959V49.32H86.9759C90.5759 49.32 92.0159 47.64 92.0159 44.88V24.2H86.5359ZM102.92 44V24.2H97.3597V44H102.92ZM97.2397 21.56H103.04V17.24H97.2397V21.56ZM116.946 24.2C115.186 24.2 114.106 25 113.746 26.44V24.2H108.266V44H113.826V29.68C113.826 28.76 114.226 28.4 114.986 28.4H115.946C116.746 28.4 117.026 28.68 117.026 29.4V44H122.626V28.64C122.626 25.88 121.226 24.2 117.946 24.2H116.946ZM141.724 31.32V28.64C141.724 25.88 140.284 24.2 136.644 24.2H132.564C128.924 24.2 127.484 25.88 127.484 28.64V39.56C127.484 42.32 128.924 44 132.564 44H136.644C140.284 44 141.724 42.32 141.724 39.56V36.88H136.284V38.8C136.284 39.52 136.004 39.8 135.204 39.8H134.164C133.364 39.8 133.084 39.52 133.084 38.8V29.4C133.084 28.68 133.364 28.4 134.164 28.4H135.204C136.004 28.4 136.284 28.68 136.284 29.4V31.32H141.724ZM155.288 39C155.288 39.72 155.008 40 154.208 40H152.728C151.928 40 151.648 39.72 151.648 39V29.2C151.648 28.48 151.928 28.2 152.728 28.2H154.208C155.008 28.2 155.288 28.48 155.288 29.2V39ZM151.088 24.2C147.448 24.2 146.168 25.88 146.168 28.64V39.56C146.168 42.32 147.448 44 151.088 44H155.848C159.488 44 160.768 42.32 160.768 39.56V28.64C160.768 25.88 159.488 24.2 155.848 24.2H151.088Z" fill="#15222B"/>
<path d="M8.14253 34.6105C8.14253 30.8282 9.58878 27.2717 12.2159 24.5964C14.842 21.9222 18.3345 20.4484 22.0498 20.4484H35.906L19.9886 11.092C19.7797 10.9693 19.5229 10.9693 19.314 11.092L0.337851 22.2489C0.128959 22.3715 0 22.5984 0 22.8437V45.1575C0 45.4028 0.128959 45.6296 0.337851 45.7523L8.14253 50.3409V34.6105Z" fill="#101C2A"/>
<path d="M22.0484 25.9431C17.3547 25.9431 13.5371 29.8318 13.5371 34.6104V35.3429H28.1031V40.8368H13.5371V53.512L19.3136 56.9079C19.5225 57.0306 19.7794 57.0306 19.9883 56.9079L38.9644 45.751C39.1733 45.6284 39.3022 45.4015 39.3022 45.1563V27.9629L44.9999 25.9431H22.0484Z" fill="#FF4A17"/>
</svg>
